HIERARCHY
ROOT Hips
{
	OFFSET 0.000000 0.000000 0.000000 
	CHANNELS 6 Xposition Yposition Zposition Zrotation Yrotation Xrotation
	JOINT LeftUpLeg
	{
		OFFSET 1.363060 -1.794630 0.839290 
		CHANNELS 3 Zrotation Yrotation Xrotation
		JOINT LeftLeg
		{
			OFFSET 2.448110 -6.726130 0.000000 
			CHANNELS 3 Zrotation Yrotation Xrotation
			JOINT LeftFoot
			{
				OFFSET 2.562200 -7.039590 0.000000 
				CHANNELS 3 Zrotation Yrotation Xrotation
				JOINT LeftToeBase
				{
					OFFSET 0.157640 -0.433110 2.322550 
					CHANNELS 3 Zrotation Yrotation Xrotation
					End Site
					{
						OFFSET 0.000000 0.000000 0.000000 
					}
				}
			}
		}
	}
	JOINT RightUpLeg
	{
		OFFSET -1.305520 -1.794630 0.839290 
		CHANNELS 3 Zrotation Yrotation Xrotation
		JOINT RightLeg
		{
			OFFSET -2.542530 -6.985550 0.000000 
			CHANNELS 3 Zrotation Yrotation Xrotation
			JOINT RightFoot
			{
				OFFSET -2.568260 -7.056230 0.000000 
				CHANNELS 3 Zrotation Yrotation Xrotation
				JOINT RightToeBase
				{
					OFFSET -0.164730 -0.452590 2.363150 
					CHANNELS 3 Zrotation Yrotation Xrotation
					End Site
					{
						OFFSET 0.000000 0.000000 0.000000 
					}
				}
			}
		}
	}
	JOINT Spine
	{
		OFFSET 0.028270 2.035590 -0.193380 
		CHANNELS 3 Zrotation Yrotation Xrotation
		JOINT Spine1
		{
			OFFSET 0.056720 2.048850 -0.042750 
			CHANNELS 3 Zrotation Yrotation Xrotation
			JOINT Neck1
			{
				OFFSET -0.054170 1.746240 0.172020 
				CHANNELS 3 Zrotation Yrotation Xrotation
				JOINT Head
				{
					OFFSET 0.104070 1.761360 -0.123970 
					CHANNELS 3 Zrotation Yrotation Xrotation
					End Site
					{
						OFFSET 0.000000 0.000000 0.000000 
					}
				}
			}
			JOINT LeftArm
			{
				OFFSET 3.362410 1.200890 -0.311210 
				CHANNELS 3 Zrotation Yrotation Xrotation
				JOINT LeftForeArm
				{
					OFFSET 4.983000 -0.000000 -0.000000 
					CHANNELS 3 Zrotation Yrotation Xrotation
					JOINT LeftHand
					{
						OFFSET 3.483560 -0.000000 -0.000000 
						CHANNELS 3 Zrotation Yrotation Xrotation
						JOINT LeftHandIndex1
						{
							OFFSET 0.715260 -0.000000 -0.000000 
							CHANNELS 3 Zrotation Yrotation Xrotation
							End Site
							{
								OFFSET 0.000000 0.000000 0.000000 
							}
						}
					}
				}
			}
			JOINT RightArm
			{
				OFFSET -3.136600 1.374050 -0.404650 
				CHANNELS 3 Zrotation Yrotation Xrotation
				JOINT RightForeArm
				{
					OFFSET -5.241900 -0.000000 -0.000000 
					CHANNELS 3 Zrotation Yrotation Xrotation
					JOINT RightHand
					{
						OFFSET -3.444170 -0.000000 -0.000000 
						CHANNELS 3 Zrotation Yrotation Xrotation
						JOINT RightHandIndex1
						{
							OFFSET -0.622530 -0.000000 -0.000000 
							CHANNELS 3 Zrotation Yrotation Xrotation
							End Site
							{
								OFFSET 0.000000 0.000000 0.000000 
							}
						}
					}
				}
			}
		}
	}
}
MOTION
Frames: 6
Frame Time: 0.041667
-0.471925 17.533288 -0.657244 178.164105 -6.961381 -162.132635 -29.726570 -9.983500 -18.909205 -0.038349 9.994599 27.054640 -2.208847 13.811635 -23.525118 0.413200 -4.126400 -11.432500 16.002135 19.812660 -55.746305 -2.351357 -15.701733 37.941230 4.909291 -25.176595 -29.872088 -8.419500 -16.419300 54.059900 1.331991 -2.275376 -4.227149 1.592833 -1.267181 3.698935 5.855936 -3.515684 20.916154 -0.064700 -2.382000 17.162200 -80.667650 13.096901 15.106541 12.005733 -18.355761 -2.206700 1.750270 3.371903 2.667596 -7.125000 0.000000 0.000000 78.652853 -13.160980 32.519490 -11.688256 14.614159 -1.638737 -2.319048 0.762843 -6.066223 7.125000 0.000000 0.000000 
-0.469596 17.522386 -0.709633 177.976864 -7.301661 -162.063037 -29.868463 -10.012772 -18.742666 -0.037534 9.979262 27.032712 -2.244909 13.884254 -23.432679 0.476100 -4.424900 -12.275300 16.164355 19.598545 -55.480068 -2.344152 -15.713969 38.073045 4.367740 -23.947501 -30.671459 -8.712400 -16.619100 55.090300 1.324593 -2.436954 -4.264159 1.495963 -1.348521 3.601036 5.778269 -3.514083 20.932792 -0.140400 -2.381600 17.127400 -80.270910 13.174815 16.977138 11.582373 -17.858338 -2.089171 1.649151 3.351906 3.017736 -7.125000 0.000000 0.000000 78.575740 -13.379859 33.507371 -12.008654 14.979687 -1.669114 -2.262630 0.742591 -7.120421 7.125000 0.000000 0.000000 
-0.463775 17.506829 -0.768690 177.955309 -7.601510 -161.876108 -29.795495 -10.071509 -18.752505 -0.027990 9.991968 27.069438 -2.304635 14.020280 -23.337450 0.541200 -4.713300 -13.092500 16.220561 19.790508 -55.232014 -2.315354 -15.706309 38.084224 4.000629 -23.195222 -31.363481 -8.505400 -16.478700 54.363300 1.329659 -2.538615 -4.289373 1.419829 -1.402022 3.667238 5.739046 -3.580217 20.974396 -0.191700 -2.399300 17.143600 -79.823967 13.349078 19.034074 11.354027 -17.609085 -2.014777 1.502414 3.336576 3.425881 -7.125000 0.000000 0.000000 78.508963 -13.479918 34.369373 -12.203454 15.209036 -1.683223 -2.214095 0.733068 -7.885550 7.125000 0.000000 0.000000 
-0.462505 17.491271 -0.840130 177.926519 -7.441617 -161.764367 -29.863804 -9.903954 -18.681560 -0.025041 9.996436 27.112367 -2.215016 13.899787 -23.685591 0.560000 -4.793300 -13.319900 16.362110 20.125107 -54.950729 -2.326870 -15.713650 38.093911 4.273335 -24.000572 -31.310241 -8.321100 -16.350400 53.711100 1.305054 -2.465075 -4.302320 1.332732 -1.367722 3.754709 5.739540 -3.605707 20.986945 -0.186900 -2.418800 17.091600 -79.475608 13.764296 21.155332 11.334524 -17.603051 -1.976213 1.425917 3.267141 3.968864 -7.125000 0.000000 0.000000 78.435132 -13.611739 35.296482 -12.335397 15.364049 -1.683961 -2.174600 0.684952 -8.528162 7.125000 0.000000 0.000000 
-0.459224 17.476665 -0.903314 177.777175 -7.408139 -161.420162 -29.987197 -9.850787 -18.865476 -0.024216 10.012259 27.139245 -2.201225 13.907485 -23.797995 0.567200 -4.823600 -13.406200 16.547695 20.092796 -54.997868 -2.342959 -15.710892 38.060205 4.671253 -24.976191 -30.885505 -8.089400 -16.184600 52.884000 1.297046 -2.523196 -4.359080 1.339508 -1.399759 3.759022 5.782939 -3.524541 20.989387 -0.105600 -2.429500 17.021500 -79.206379 14.235783 23.369617 11.318918 -17.592146 -1.928202 1.382687 3.154513 4.600729 -7.125000 0.000000 0.000000 78.285589 -13.852340 36.092521 -12.635687 15.710415 -1.721802 -2.131390 0.662052 -9.103444 7.125000 0.000000 0.000000 
-0.465257 17.461636 -0.978458 177.599166 -7.557690 -161.075276 -30.153202 -9.924664 -18.933094 -0.014097 10.037260 27.198555 -2.171938 13.845433 -23.835082 0.600400 -4.960100 -13.794800 16.618503 19.848587 -54.990127 -2.334798 -15.682831 37.981799 4.795656 -25.230660 -30.672264 -8.066000 -16.167600 52.800200 1.293182 -2.654860 -4.378027 1.274047 -1.474920 4.041701 5.857956 -3.455540 21.108519 0.010000 -2.442200 17.142700 -78.812216 14.595117 26.156860 11.275489 -17.552682 -1.876088 1.320249 3.063397 4.827138 -7.125000 0.000000 0.000000 78.170551 -13.897353 36.406117 -12.758835 15.892102 -1.747532 -2.111822 0.705991 -9.038102 7.125000 0.000000 0.000000 
